<svg width="38" height="35" viewBox="0 0 38 35" fill="none" xmlns="http://www.w3.org/2000/svg">
<path d="M36 25.9319V5.41291C36 3.37291 34.334 1.85991 32.311 2.02991H32.209C28.639 2.33591 23.216 4.15491 20.19 6.05891L19.901 6.24591C19.408 6.55191 18.592 6.55191 18.099 6.24591L17.674 5.99091C14.648 4.10391 9.242 2.30191 5.672 2.01291C3.649 1.84291 2 3.3729 2 5.39591V25.9319C2 27.5639 3.326 29.0939 4.958 29.2979L5.451 29.3659C9.14 29.8589 14.835 31.7289 18.099 33.5139L18.167 33.5479C18.626 33.8029 19.357 33.8029 19.799 33.5479C23.063 31.7459 28.775 29.8589 32.481 29.3659L33.042 29.2979C34.674 29.0939 36 27.5639 36 25.9319Z" stroke="white" stroke-width="2.5" stroke-linecap="round" stroke-linejoin="round"/>
<path d="M19 6.80695V32.307" stroke="white" stroke-width="2.5" stroke-linecap="round" stroke-linejoin="round"/>
<path d="M11.7781 11.907H7.95312" stroke="white" stroke-width="2.5" stroke-linecap="round" stroke-linejoin="round"/>
<path d="M13.0531 17.0071H7.95312" stroke="white" stroke-width="2.5" stroke-linecap="round" stroke-linejoin="round"/>
</svg>
