<svg width="19" height="19" viewBox="0 0 19 19" fill="none" xmlns="http://www.w3.org/2000/svg">
<path d="M18 14.9014C18 15.2078 17.9319 15.5228 17.7872 15.8292C17.6425 16.1357 17.4552 16.4251 17.2083 16.6975C16.7912 17.1572 16.3315 17.4892 15.8122 17.7021C15.3015 17.9149 14.7481 18.0255 14.1522 18.0255C13.2839 18.0255 12.356 17.8212 11.3771 17.4041C10.3981 16.987 9.41913 16.4251 8.44867 15.7186C7.4697 15.0035 6.54181 14.2118 5.65648 13.335C4.77967 12.4497 3.98798 11.5218 3.28142 10.5513C2.58337 9.58087 2.02153 8.61042 1.61292 7.64847C1.20431 6.67802 1 5.75012 1 4.8648C1 4.28593 1.10215 3.7326 1.30646 3.22183C1.51077 2.70255 1.83425 2.22584 2.28543 1.8002C2.83025 1.2639 3.42614 1 4.05608 1C4.29444 1 4.5328 1.05108 4.74562 1.15323C4.96695 1.25538 5.16274 1.40861 5.31597 1.62994L7.29094 4.41362C7.44417 4.62644 7.55483 4.82223 7.63145 5.00951C7.70806 5.18828 7.75063 5.36705 7.75063 5.52879C7.75063 5.7331 7.69104 5.93741 7.57186 6.1332C7.46119 6.32899 7.29945 6.5333 7.09514 6.73761L6.44817 7.41011C6.35453 7.50376 6.31197 7.61442 6.31197 7.75063C6.31197 7.81873 6.32048 7.87832 6.33751 7.94642C6.36305 8.01452 6.38858 8.0656 6.40561 8.11667C6.55884 8.3976 6.82273 8.76365 7.1973 9.20631C7.58037 9.64897 7.98898 10.1002 8.43165 10.5513C8.89134 11.0025 9.334 11.4196 9.78518 11.8027C10.2278 12.1773 10.5939 12.4326 10.8833 12.5859C10.9259 12.6029 10.977 12.6284 11.0366 12.654C11.1047 12.6795 11.1728 12.688 11.2494 12.688C11.3941 12.688 11.5048 12.637 11.5984 12.5433L12.2454 11.9049C12.4582 11.692 12.6625 11.5303 12.8583 11.4281C13.0541 11.309 13.2499 11.2494 13.4627 11.2494C13.6244 11.2494 13.7947 11.2834 13.982 11.36C14.1693 11.4367 14.365 11.5473 14.5779 11.692L17.3956 13.6925C17.6169 13.8458 17.7702 14.0245 17.8638 14.2374C17.9489 14.4502 18 14.663 18 14.9014Z" stroke="#848A93" stroke-width="1.5" stroke-miterlimit="10"/>
</svg>
