<svg width="38" height="41" viewBox="0 0 38 41" fill="none" xmlns="http://www.w3.org/2000/svg">
<path d="M13.3438 23.9608C13.3438 26.1538 15.0268 27.9218 17.1178 27.9218H21.3847C23.2037 27.9218 24.6827 26.3748 24.6827 24.4708C24.6827 22.3968 23.7818 21.6658 22.4388 21.1898L15.5877 18.8098C14.2447 18.3338 13.3438 17.6028 13.3438 15.5288C13.3438 13.6248 14.8227 12.0778 16.6417 12.0778H20.9087C22.9997 12.0778 24.6827 13.8458 24.6827 16.0388" stroke="white" stroke-width="2.5" stroke-linecap="round" stroke-linejoin="round"/>
<path d="M29 2L10 39" stroke="white" stroke-width="2.5" stroke-linecap="round" stroke-linejoin="round"/>
<path d="M19 37C28.3888 37 36 29.3888 36 20C36 10.6112 28.3888 3 19 3C9.61116 3 2 10.6112 2 20C2 29.3888 9.61116 37 19 37Z" stroke="white" stroke-width="2.5" stroke-linecap="round" stroke-linejoin="round"/>
</svg>
