<svg width="34" height="35" viewBox="0 0 34 35" fill="none" xmlns="http://www.w3.org/2000/svg">
<path d="M26.5978 15.0806V21.488C26.5978 21.9045 26.5817 22.305 26.5337 22.6894C26.1652 27.0144 23.6183 29.1609 18.9248 29.1609H18.2841C17.8836 29.1609 17.4992 29.3531 17.2589 29.6735L15.3367 32.2365C14.4877 33.3738 13.1101 33.3738 12.2611 32.2365L10.3388 29.6735C10.1306 29.4012 9.66607 29.1609 9.31366 29.1609H8.67293C3.56299 29.1609 1 27.8955 1 21.488V15.0806C1 10.3871 3.16253 7.84017 7.47153 7.47174C7.85598 7.42369 8.25644 7.40765 8.67293 7.40765H18.9248C24.0348 7.40765 26.5978 9.97064 26.5978 15.0806Z" stroke="white" stroke-width="2" stroke-miterlimit="10" stroke-linecap="round" stroke-linejoin="round"/>
<path d="M33.0024 8.67293V15.0804C33.0024 19.7898 30.8399 22.3208 26.5309 22.6892C26.5789 22.3048 26.595 21.9043 26.595 21.4878V15.0804C26.595 9.97043 24.032 7.40744 18.922 7.40744H8.67015C8.25366 7.40744 7.8532 7.42347 7.46875 7.47153C7.83718 3.16253 10.3841 1 15.0776 1H25.3295C30.4394 1 33.0024 3.56299 33.0024 8.67293Z" stroke="white" stroke-width="2" stroke-miterlimit="10" stroke-linecap="round" stroke-linejoin="round"/>
<path d="M19.4109 19.0211H19.4253" stroke="white" stroke-width="3" stroke-linecap="round" stroke-linejoin="round"/>
<path d="M13.8054 19.0211H13.8199" stroke="white" stroke-width="3" stroke-linecap="round" stroke-linejoin="round"/>
<path d="M8.19997 19.0211H8.21439" stroke="white" stroke-width="3" stroke-linecap="round" stroke-linejoin="round"/>
</svg>
