<svg width="16" height="22" viewBox="0 0 16 22" fill="none" xmlns="http://www.w3.org/2000/svg">
<path d="M7.99484 10.1041C7.89221 10.0938 7.76904 10.0938 7.65614 10.1041C5.21332 10.022 3.27344 8.02053 3.27344 5.55718C3.27344 3.04252 5.3057 1 7.83062 1C10.3453 1 12.3878 3.04252 12.3878 5.55718C12.3775 8.02053 10.4377 10.022 7.99484 10.1041Z" stroke="#848A93" stroke-width="1.3" stroke-linecap="round" stroke-linejoin="round"/>
<path d="M2.8629 13.8911C0.379032 15.5539 0.379032 18.2636 2.8629 19.9161C5.68548 21.8046 10.3145 21.8046 13.1371 19.9161C15.621 18.2533 15.621 15.5436 13.1371 13.8911C10.3248 12.0128 5.69575 12.0128 2.8629 13.8911Z" stroke="#848A93" stroke-width="1.3" stroke-linecap="round" stroke-linejoin="round"/>
</svg>
