<svg width="38" height="34" viewBox="0 0 38 34" fill="none" xmlns="http://www.w3.org/2000/svg">
<path d="M19 30.9H10.5C5.4 30.9 2 28.35 2 22.4V10.5C2 4.55 5.4 2 10.5 2H27.5C32.6 2 36 4.55 36 10.5V15.6" stroke="white" stroke-width="2.5" stroke-miterlimit="10" stroke-linecap="round" stroke-linejoin="round"/>
<path d="M27.5 11.35L22.179 15.6C20.428 16.994 17.555 16.994 15.804 15.6L10.5 11.35" stroke="white" stroke-width="2.5" stroke-miterlimit="10" stroke-linecap="round" stroke-linejoin="round"/>
<path d="M31.2611 21.1589L25.2431 27.1769C25.0051 27.4149 24.7841 27.8569 24.7331 28.1799L24.4101 30.4749C24.2911 31.3079 24.8691 31.886 25.7021 31.767L27.9971 31.444C28.3201 31.393 28.7791 31.1719 29.0001 30.9339L35.0181 24.916C36.0551 23.879 36.5481 22.672 35.0181 21.142C33.5051 19.629 32.2981 20.1219 31.2611 21.1589Z" stroke="white" stroke-width="2.5" stroke-miterlimit="10" stroke-linecap="round" stroke-linejoin="round"/>
<path d="M30.3906 22.0259C30.9006 23.8619 32.3286 25.2899 34.1646 25.7999" stroke="white" stroke-width="2.5" stroke-miterlimit="10" stroke-linecap="round" stroke-linejoin="round"/>
</svg>
