<svg width="48" height="48" viewBox="0 0 48 48" fill="none" xmlns="http://www.w3.org/2000/svg">
<g filter="url(#filter0_d_204_90262)">
<path fill-rule="evenodd" clip-rule="evenodd" d="M4 11C4 5.47715 8.47715 1 14 1H34C39.5228 1 44 5.47715 44 11V17.2845C42.5258 17.8739 41.4844 19.3154 41.4844 21C41.4844 22.6846 42.5258 24.1261 44 24.7155V31C44 36.5228 39.5228 41 34 41H14C8.47715 41 4 36.5228 4 31V24.4161C5.15022 23.7136 5.91797 22.4464 5.91797 21C5.91797 19.5536 5.15022 18.2864 4 17.5839V11Z" fill="#EBB02E"/>
</g>
<defs>
<filter id="filter0_d_204_90262" x="0" y="0" width="48" height="48" filterUnits="userSpaceOnUse" color-interpolation-filters="sRGB">
<feFlood flood-opacity="0" result="BackgroundImageFix"/>
<feColorMatrix in="SourceAlpha" type="matrix" values="0 0 0 0 0 0 0 0 0 0 0 0 0 0 0 0 0 0 127 0" result="hardAlpha"/>
<feOffset dy="3"/>
<feGaussianBlur stdDeviation="2"/>
<feComposite in2="hardAlpha" operator="out"/>
<feColorMatrix type="matrix" values="0 0 0 0 0 0 0 0 0 0 0 0 0 0 0 0 0 0 0.15 0"/>
<feBlend mode="normal" in2="BackgroundImageFix" result="effect1_dropShadow_204_90262"/>
<feBlend mode="normal" in="SourceGraphic" in2="effect1_dropShadow_204_90262" result="shape"/>
</filter>
</defs>
</svg>
